<svg width="20" height="20" viewBox="0 0 20 20" fill="none" xmlns="http://www.w3.org/2000/svg">
<path d="M6.86782 20H6.99441C11.3177 20 13.4014 18.296 13.7617 14.4791C13.8006 14.0798 13.5085 13.7196 13.0996 13.6806C12.7101 13.6417 12.3401 13.9435 12.3011 14.3427C12.0187 17.4002 10.5777 18.5394 6.98467 18.5394H6.85809C2.89509 18.5394 1.49295 17.1373 1.49295 13.1743V6.82571C1.49295 2.86271 2.89509 1.46056 6.85809 1.46056H6.98467C10.5971 1.46056 12.0382 2.61928 12.3011 5.73515C12.3498 6.13437 12.6906 6.43622 13.0996 6.39727C13.5085 6.36806 13.8006 6.00779 13.7714 5.60857C13.4404 1.7332 11.3469 0 6.99441 0H6.86782C2.08691 0 0.0421181 2.04479 0.0421181 6.82571V13.1743C0.0421181 17.9552 2.08691 20 6.86782 20Z" fill="currentColor"/>
<path d="M7.10101 10.7301H18.1818C18.581 10.7301 18.9121 10.399 18.9121 9.99981C18.9121 9.60059 18.581 9.26953 18.1818 9.26953H7.10101C6.70179 9.26953 6.37073 9.60059 6.37073 9.99981C6.37073 10.399 6.70179 10.7301 7.10101 10.7301Z" fill="currentColor"/>
<path d="M16.0102 13.9918C16.1952 13.9918 16.3802 13.9236 16.5263 13.7775L19.7882 10.5156C20.0706 10.2332 20.0706 9.76585 19.7882 9.48348L16.5263 6.22155C16.2439 5.93917 15.7765 5.93917 15.4942 6.22155C15.2118 6.50392 15.2118 6.9713 15.4942 7.25368L18.24 9.99954L15.4942 12.7454C15.2118 13.0278 15.2118 13.4952 15.4942 13.7775C15.6305 13.9236 15.8252 13.9918 16.0102 13.9918Z" fill="currentColor"/>
</svg>
