<svg width="24" height="24" viewBox="0 0 24 24" fill="currentColor" xmlns="http://www.w3.org/2000/svg">
<path d="M14.7907 22H9.2093C4.15814 22 2 19.8419 2 14.7907V9.2093C2 4.15814 4.15814 2 9.2093 2H14.7907C19.8419 2 22 4.15814 22 9.2093V14.7907C22 19.8419 19.8419 22 14.7907 22ZM9.2093 3.39535C4.92093 3.39535 3.39535 4.92093 3.39535 9.2093V14.7907C3.39535 19.0791 4.92093 20.6047 9.2093 20.6047H14.7907C19.0791 20.6047 20.6047 19.0791 20.6047 14.7907V9.2093C20.6047 4.92093 19.0791 3.39535 14.7907 3.39535H9.2093Z"/>
<path d="M12.0005 12.9308C11.4796 12.9308 11.0703 12.5122 11.0703 12.0005C11.0703 11.4889 11.4889 11.0703 12.0005 11.0703C12.5122 11.0703 12.9308 11.4889 12.9308 12.0005C12.9308 12.5122 12.5215 12.9308 12.0005 12.9308Z"/>
<path d="M15.7212 12.9308C15.2003 12.9308 14.791 12.5122 14.791 12.0005C14.791 11.4889 15.2096 11.0703 15.7212 11.0703C16.2329 11.0703 16.6515 11.4889 16.6515 12.0005C16.6515 12.5122 16.2422 12.9308 15.7212 12.9308Z"/>
<path d="M8.27984 12.9308C7.75891 12.9308 7.34961 12.5122 7.34961 12.0005C7.34961 11.4889 7.76821 11.0703 8.27984 11.0703C8.79147 11.0703 9.21007 11.4889 9.21007 12.0005C9.21007 12.5122 8.80077 12.9308 8.27984 12.9308Z"/>
</svg>
