<svg width="78" height="78" viewBox="0 0 78 78" fill="none" xmlns="http://www.w3.org/2000/svg">
<path d="M63.925 67.0196C61.0131 63.1654 57.2463 60.0397 52.9212 57.8887C48.596 55.7377 43.8305 54.62 39 54.6238C34.1695 54.62 29.404 55.7377 25.0788 57.8887C20.7537 60.0397 16.9869 63.1654 14.075 67.0196M63.925 67.0196C69.6063 61.9662 73.6171 55.3052 75.4258 47.92C77.2344 40.5347 76.7553 32.7741 74.0519 25.6674C71.3486 18.5607 66.5489 12.4437 60.2891 8.12751C54.0294 3.81134 46.6056 1.5 39.0021 1.5C31.3986 1.5 23.9747 3.81134 17.715 8.12751C11.4553 12.4437 6.65554 18.5607 3.95222 25.6674C1.24891 32.7741 0.769797 40.5347 2.57841 47.92C4.38702 55.3052 8.39375 61.9662 14.075 67.0196M63.925 67.0196C57.0659 73.1357 48.1898 76.5103 39 76.4988C29.8087 76.5113 20.9351 73.1366 14.075 67.0196M51.5 29.6238C51.5 32.939 50.183 36.1184 47.8388 38.4626C45.4946 40.8068 42.3152 42.1238 39 42.1238C35.6848 42.1238 32.5054 40.8068 30.1612 38.4626C27.817 36.1184 26.5 32.939 26.5 29.6238C26.5 26.3086 27.817 23.1291 30.1612 20.7849C32.5054 18.4407 35.6848 17.1238 39 17.1238C42.3152 17.1238 45.4946 18.4407 47.8388 20.7849C50.183 23.1291 51.5 26.3086 51.5 29.6238Z" stroke="currentColor" stroke-width="1.5" stroke-linecap="round" stroke-linejoin="round"/>
</svg>
