<svg width="20" height="21" viewBox="0 0 20 21" fill="none" xmlns="http://www.w3.org/2000/svg">
<path d="M13.4038 6.7832C12.7135 6.7832 12.1538 6.22356 12.1538 5.5332C12.1538 4.84285 12.7135 4.2832 13.4038 4.2832C14.0942 4.2832 14.6538 4.84285 14.6538 5.5332C14.6538 6.22356 14.0942 6.7832 13.4038 6.7832Z" fill="currentColor"/>
<path d="M8.90576 5.9707C8.21541 5.9707 7.65576 5.41106 7.65576 4.7207C7.65576 4.03035 8.21541 3.4707 8.90576 3.4707C9.59612 3.4707 10.1558 4.03035 10.1558 4.7207C10.1558 5.41106 9.59612 5.9707 8.90576 5.9707Z" fill="currentColor"/>
<path d="M5.40381 8.68945C4.71345 8.68945 4.15381 8.12981 4.15381 7.43945C4.15381 6.7491 4.71345 6.18945 5.40381 6.18945C6.09416 6.18945 6.65381 6.7491 6.65381 7.43945C6.65381 8.12981 6.09416 8.68945 5.40381 8.68945Z" fill="currentColor"/>
<path d="M4.43506 12.9062C3.7447 12.9062 3.18506 12.3466 3.18506 11.6562C3.18506 10.9659 3.7447 10.4062 4.43506 10.4062C5.12541 10.4062 5.68506 10.9659 5.68506 11.6562C5.68506 12.3466 5.12541 12.9062 4.43506 12.9062Z" fill="currentColor"/>
<path d="M6.65381 16.6973C5.96345 16.6973 5.40381 16.1376 5.40381 15.4473C5.40381 14.7569 5.96345 14.1973 6.65381 14.1973C7.34416 14.1973 7.90381 14.7569 7.90381 15.4473C7.90381 16.1376 7.34416 16.6973 6.65381 16.6973Z" fill="currentColor"/>
<path d="M19.25 10.25C19.25 8.42053 18.7075 6.63213 17.6911 5.11098C16.6747 3.58982 15.23 2.40423 13.5398 1.70412C11.8496 1.00401 9.98974 0.820827 8.19542 1.17774C6.40109 1.53465 4.7529 2.41563 3.45927 3.70927C2.16563 5.0029 1.28465 6.65109 0.92774 8.44542C0.570827 10.2397 0.754008 12.0996 1.45412 13.7898C2.15423 15.48 3.33982 16.9247 4.86098 17.9411C6.38213 18.9575 8.17053 19.5 10 19.5C11.318 19.5 12.224 18.22 12.329 16.906L12.446 15.433C12.5029 14.7211 12.8119 14.0528 13.3175 13.5484C13.823 13.0439 14.492 12.7363 15.204 12.681L16.855 12.552C18.135 12.452 19.25 11.533 19.25 10.25Z" fill="transparent" stroke="currentColor" stroke-width="1.5" stroke-linejoin="round"/>
</svg>
