<svg width="20" height="20" viewBox="0 0 20 20" fill="none" xmlns="http://www.w3.org/2000/svg">
<path d="M7.20741 8.83987C5.79381 8.83987 4.6499 7.69597 4.6499 6.28236C4.6499 4.86876 5.79381 3.72485 7.20741 3.72485C8.62101 3.72485 9.76492 4.86876 9.76492 6.28236C9.76492 7.69597 8.62101 8.83987 7.20741 8.83987ZM7.20741 5.11986C6.56571 5.11986 6.04491 5.64066 6.04491 6.28236C6.04491 6.92406 6.56571 7.44487 7.20741 7.44487C7.84911 7.44487 8.36991 6.92406 8.36991 6.28236C8.36991 5.64066 7.84911 5.11986 7.20741 5.11986Z" />
<path d="M12.7875 19.9999H7.20752C2.15761 19.9999 0 17.8423 0 12.7924V7.21241C0 2.16249 2.15761 0.00488281 7.20752 0.00488281H10.9275C11.3088 0.00488281 11.625 0.321084 11.625 0.702385C11.625 1.08369 11.3088 1.39989 10.9275 1.39989H7.20752C2.92021 1.39989 1.395 2.92509 1.395 7.21241V12.7924C1.395 17.0797 2.92021 18.6049 7.20752 18.6049H12.7875C17.0749 18.6049 18.6001 17.0797 18.6001 12.7924V8.14241C18.6001 7.76111 18.9163 7.44491 19.2976 7.44491C19.6789 7.44491 19.9951 7.76111 19.9951 8.14241V12.7924C19.9951 17.8423 17.8375 19.9999 12.7875 19.9999Z" />
<path d="M13.4105 7.90996C13.0478 7.90996 12.713 7.77976 12.4712 7.52866C12.1829 7.24036 12.0434 6.81256 12.1085 6.37546L12.2945 5.08275C12.341 4.75725 12.5363 4.35735 12.7781 4.12485L16.1541 0.748941C17.5026 -0.599564 18.6744 0.172339 19.251 0.748941C19.7997 1.29764 20.0508 1.87424 19.995 2.46945C19.9485 2.94375 19.7067 3.39945 19.251 3.84585L15.8751 7.22176C15.6426 7.45426 15.2427 7.64956 14.9172 7.70536L13.6244 7.89136C13.55 7.90996 13.4756 7.90996 13.4105 7.90996ZM17.1306 1.74404L13.7546 5.11995C13.7267 5.14785 13.6802 5.25015 13.6709 5.29665L13.4942 6.50566L14.7125 6.33826C14.7497 6.32896 14.852 6.28246 14.8892 6.24526L18.2652 2.86935C18.4698 2.66475 18.5907 2.47875 18.6 2.33925C18.6186 2.14394 18.4233 1.90214 18.2652 1.74404C17.7816 1.26044 17.5584 1.31624 17.1306 1.74404Z" />
<path d="M18.2745 4.5433C18.2094 4.5433 18.1443 4.534 18.0885 4.5154C16.8423 4.162 15.8472 3.16689 15.4938 1.92069C15.3915 1.54869 15.6054 1.16739 15.9774 1.06509C16.3494 0.962787 16.7307 1.17669 16.833 1.54869C17.0562 2.32989 17.6793 2.96229 18.4698 3.18549C18.8418 3.28779 19.0557 3.6784 18.9534 4.0411C18.8511 4.3387 18.5721 4.5433 18.2745 4.5433Z" />
<path d="M1.32061 17.1636C1.09741 17.1636 0.87421 17.052 0.744009 16.8567C0.530109 16.5405 0.613809 16.1034 0.93001 15.8895L5.51492 12.8112C6.51933 12.1416 7.90503 12.216 8.81643 12.9879L9.12333 13.2576C9.58834 13.6575 10.3788 13.6575 10.8345 13.2576L14.7034 9.93746C15.6892 9.09116 17.2423 9.09116 18.2374 9.93746L19.7533 11.2395C20.0416 11.4906 20.0788 11.9277 19.8277 12.2253C19.5766 12.5136 19.1395 12.5508 18.8419 12.2997L17.326 10.9977C16.861 10.5978 16.0705 10.5978 15.6148 10.9977L11.7459 14.3178C10.7601 15.1641 9.20703 15.1641 8.21193 14.3178L7.90503 14.0481C7.47723 13.6854 6.77043 13.6482 6.29613 13.9737L1.72051 17.052C1.59031 17.1264 1.45081 17.1636 1.32061 17.1636Z" />
</svg>
