<svg width="24" height="24" viewBox="0 0 24 24" fill="none" xmlns="http://www.w3.org/2000/svg">
<path d="M11.9882 12.6977C9.0394 12.6977 6.6394 10.2977 6.6394 7.34884C6.6394 4.4 9.0394 2 11.9882 2C14.9371 2 17.3371 4.4 17.3371 7.34884C17.3371 10.2977 14.9371 12.6977 11.9882 12.6977ZM11.9882 3.39535C9.8115 3.39535 8.03475 5.17209 8.03475 7.34884C8.03475 9.52558 9.8115 11.3023 11.9882 11.3023C14.165 11.3023 15.9417 9.52558 15.9417 7.34884C15.9417 5.17209 14.165 3.39535 11.9882 3.39535Z" fill="#253017"/>
<path d="M19.9791 22C19.5977 22 19.2814 21.6837 19.2814 21.3023C19.2814 18.093 16.007 15.4884 11.9884 15.4884C7.96981 15.4884 4.6954 18.093 4.6954 21.3023C4.6954 21.6837 4.37912 22 3.99772 22C3.61633 22 3.30005 21.6837 3.30005 21.3023C3.30005 17.3302 7.19772 14.093 11.9884 14.093C16.7791 14.093 20.6768 17.3302 20.6768 21.3023C20.6768 21.6837 20.3605 22 19.9791 22Z" fill="#253017"/>
</svg>
