<svg width="24" height="25" viewBox="0 0 24 25" xmlns="http://www.w3.org/2000/svg">
<path d="M12 8.66992C14.1138 8.66996 15.8301 10.3862 15.8301 12.5C15.83 14.6138 14.1138 16.33 12 16.3301C9.88617 16.3301 8.16996 14.6138 8.16992 12.5C8.16992 10.3861 9.88614 8.66992 12 8.66992ZM12 9.16992C10.1639 9.16992 8.66992 10.6639 8.66992 12.5C8.66996 14.3361 10.1639 15.8301 12 15.8301C13.8361 15.83 15.33 14.3361 15.3301 12.5C15.3301 10.6639 13.8361 9.16996 12 9.16992Z" stroke="currentColor"/>
<path d="M12 3.98047C15.5411 3.98047 18.9476 6.05809 21.3184 9.76953L21.3193 9.77051C21.7864 10.4975 22.0352 11.4837 22.0352 12.4971C22.0351 13.5102 21.7861 14.4989 21.3184 15.2314C18.9476 18.9429 15.5411 21.0205 12 21.0205C8.44867 21.0205 5.04244 18.9426 2.67188 15.2314L2.6709 15.2305L2.50586 14.9463C2.1453 14.2567 1.95508 13.3908 1.95508 12.5039C1.95513 11.4907 2.20409 10.5021 2.67188 9.76953L2.6709 9.76855C5.05182 6.057 8.45927 3.9805 12 3.98047ZM12 4.48047C8.55694 4.4805 5.32587 6.54765 3.09961 10.041C2.6593 10.7279 2.45808 11.6313 2.45801 12.5C2.45801 13.3681 2.65905 14.2712 3.09863 14.958V14.959C5.32492 18.453 8.55658 20.5205 12 20.5205C15.4433 20.5205 18.6741 18.4527 20.9004 14.959L20.9014 14.96C21.3416 14.273 21.543 13.3687 21.543 12.5C21.5429 11.6314 21.3415 10.7279 20.9014 10.041H20.9004C18.6741 6.54767 15.4431 4.48047 12 4.48047Z" stroke="currentColor"/>
</svg>
